<?xml version="1.0" standalone="no"?><!DOCTYPE svg PUBLIC "-//W3C//DTD SVG 1.1//EN" "http://www.w3.org/Graphics/SVG/1.1/DTD/svg11.dtd"><svg class="icon" width="48px" height="48.00px" viewBox="0 0 1024 1024" version="1.1" xmlns="http://www.w3.org/2000/svg"><path d="M102.593939 563.975758h209.971718c53.268687 0 96.323232-43.183838 96.323232-96.323233 0-42.020202-26.892929-77.834343-64.517172-90.892929-15.644444-5.430303-31.935354 6.206061-31.935353 22.755556 0 10.214141 6.464646 19.264646 16.032323 22.626262 18.747475 6.593939 32.193939 24.436364 32.193939 45.511111 0 26.634343-21.591919 48.226263-48.226262 48.226263H102.593939c-13.317172 0-24.048485 10.731313-24.048484 24.048485-0.129293 13.187879 10.731313 24.048485 24.048484 24.048485zM850.294949 441.923232c-13.317172 0-24.048485 10.731313-24.048484 24.048485s10.731313 24.048485 24.048484 24.048485c63.741414 0 115.458586 51.717172 115.458586 115.458586s-51.717172 115.458586-115.458586 115.458586H102.593939c-13.317172 0-24.048485 10.731313-24.048484 24.048485s10.731313 24.048485 24.048484 24.048484h747.830303c90.375758 0 163.555556-73.179798 163.555556-163.555555s-73.309091-163.555556-163.684849-163.555556z"  /><path d="M820.169697 629.010101c15.644444 5.430303 31.935354-6.206061 31.935354-22.755556 0-10.214141-6.464646-19.264646-16.032324-22.626262-18.747475-6.593939-32.193939-24.436364-32.193939-45.511111 0-24.953535 19.006061-45.511111 43.313131-47.967677v-48.226263c-51.070707 2.456566-91.539394 44.606061-91.539394 96.19394 0 42.020202 26.892929 77.834343 64.517172 90.892929zM10.020202 272.161616s171.183838-97.09899 256-17.195959c0 0-7.757576-146.488889 133.30101-164.202021 0 0-136.533333-43.959596-174.416161 85.850505 0 0.129293-124.89697-40.727273-214.884849 95.547475z m0 0M639.547475 315.216162s160.064646-90.892929 239.450505-16.032324c0 0-7.240404-136.921212 124.638384-153.470707 0 0-127.741414-41.115152-163.167677 80.290909 0.129293 0-116.751515-38.141414-200.921212 89.212122z m0 0M101.30101 662.755556h472.436364c53.268687 0 96.323232-43.183838 96.323232-96.323233 0-42.020202-26.892929-77.834343-64.517172-90.892929-15.644444-5.430303-31.935354 6.206061-31.935353 22.755555 0 10.214141 6.464646 19.264646 16.032323 22.626263 18.747475 6.593939 32.193939 24.436364 32.193939 45.511111 0 26.634343-21.591919 48.226263-48.226262 48.226263H101.30101c-13.317172 0-24.048485 10.731313-24.048485 24.048485-0.129293 13.187879 10.731313 24.048485 24.048485 24.048485z"  /></svg>