<?xml version="1.0" standalone="no"?><!DOCTYPE svg PUBLIC "-//W3C//DTD SVG 1.1//EN" "http://www.w3.org/Graphics/SVG/1.1/DTD/svg11.dtd"><svg class="icon" width="48px" height="48.00px" viewBox="0 0 1024 1024" version="1.1" xmlns="http://www.w3.org/2000/svg"><path d="M740.1 619c-2.1 0-4.2-0.4-6.2-1.3-1-0.4-99.6-41.4-190.8-9.9-8.3 2.9-17.4-1.6-20.3-9.9-2.9-8.4 1.6-17.5 9.9-20.4 64.7-22.3 130.6-13.2 171.9-2.8L522.3 271.3c-4.6-7.6-2.1-17.4 5.4-22 7.6-4.6 17.4-2.1 21.9 5.4l204.1 339.9c3.6 6 2.9 13.5-1.6 18.8-3.1 3.7-7.5 5.6-12 5.6z" fill="#ff6d47" /><path d="M889.1 888.5s-605.9 102-754-167h754v167z" fill="#d4e3ff" /><path d="M635.6 923.4c-22.4 0-45.4-0.5-68.8-1.6-100.3-4.8-186.8-20.2-257-45.8-89.6-32.6-153.1-82.1-188.8-147-2.7-4.9-2.6-11 0.3-15.8 2.9-4.9 8.1-7.8 13.8-7.8h754c8.8 0 16 7.1 16 16v167.1c0 7.8-5.6 14.4-13.3 15.7-1.4 0.3-115.8 19.2-256.2 19.2z m-471.5-186c33.6 46.4 86.1 82.9 156.5 108.6 67.1 24.5 150.3 39.3 247.2 43.9 137.8 6.6 264.7-9.3 305.2-15.1V737.4H164.1z m725 151.1zM240.6 622.1c-4.5 0-9-2-12.1-5.6-4.5-5.2-5.1-12.8-1.6-18.7L521 107.9c3.7-6.2 11-9.1 17.9-7.2 6.9 1.9 11.7 8.2 11.7 15.4v475.1c0 5.2-2.5 10-6.7 13s-9.6 3.8-14.5 2.1c-38.5-13.3-103-25.9-191.5-10.5-53.6 9.4-90.9 24.8-91.3 24.9-1.9 1-4 1.4-6 1.4z m278.1-448.3L276.6 577.1c15.2-4.3 33.9-8.9 55.1-12.6 47.9-8.4 117.4-13.8 187 5.1V173.8z" fill="#4780ff" /><path d="M536.5 737.2c-8.8 0-16.9-7-17-15.8l-0.5-131.9c-0.1-8.8 7-16.1 15.8-16.2h0.2c8.8 0 15.9 7 16 15.8l0.5 131.9c0.1 8.8-7 16.1-15.8 16.2h0.8zM324.6 493.2c-4.3 0-8.4-2.3-10.6-6.4-3.1-5.9-0.9-13.1 5-16.2 1.5-0.8 36.3-19 92.1-23.6 6.6-0.5 12.4 4.4 12.9 11s-4.4 12.4-11 12.9c-50.9 4.2-82.5 20.7-82.8 20.9-1.8 0.9-3.7 1.4-5.6 1.4zM342.7 448.6c-4.5 0-8.8-2.6-10.8-7-2.7-6-0.1-13.1 5.8-15.8 1.6-0.8 41-18.7 104.3-23.2 6.6-0.5 12.3 4.5 12.7 11.1 0.5 6.6-4.5 12.3-11 12.8-30.6 2.2-55.1 7.8-70.2 12.1-16.4 4.7-25.7 8.9-25.8 9-1.6 0.6-3.3 1-5 1z" fill="#4780ff" /></svg>