<?xml version="1.0" standalone="no"?><!DOCTYPE svg PUBLIC "-//W3C//DTD SVG 1.1//EN" "http://www.w3.org/Graphics/SVG/1.1/DTD/svg11.dtd"><svg class="icon" width="48px" height="48.00px" viewBox="0 0 1024 1024" version="1.1" xmlns="http://www.w3.org/2000/svg"><path d="M947.2 406.0672a260.608 260.608 0 0 1-252.0832-17.57696 178.09408 178.09408 0 0 0-195.14368 0 258.80576 258.80576 0 0 1-150.49216 42.14272c-46.49984-1.536-34.50368-63.58528-5.26336-61.28128a177.9456 177.9456 0 0 0 111.45728-28.56448 258.93376 258.93376 0 0 1 283.69408 0 179.47136 179.47136 0 0 0 173.44512 12.1088c19.81952-9.4208 43.6224-18.54976 53.15584 0.95232A38.74816 38.74816 0 0 1 947.2 406.0672zM319.32928 883.11296l-25.35424-76.3648-94.98624 27.17184a35.00544 35.00544 0 1 1-15.77472-68.03456l88.71424-25.53344-36.58752-110.18752-84.55168 21.82656a29.1328 29.1328 0 0 1-11.93472-56.96512l78.05952-20.36224L173.33248 443.392c-0.26624 0.06656-0.512 0.19456-0.77824 0.25088l-56.67328 22.10304a29.1328 29.1328 0 0 1-11.93472-56.96512l51.04128-20.64384-34.50368-103.936-33.6896 6.92736a29.1328 29.1328 0 0 1-11.93472-56.96512l27.136-5.58592s-39.72608-74.09152-48.45056-105.12896S63.46752 87.04 63.46752 87.04h0.32256a39.00416 39.00416 0 0 1 36.864 25.96864l73.44128 164.82816 47.86688-7.97696a29.09696 29.09696 0 0 1 9.4208 57.344l-37.92896 6.33344 40.53504 116.67968 34.52416-5.75488a29.09696 29.09696 0 0 1 9.42592 57.344l-24.576 4.096 43.39712 124.928 35.77344-5.9648a29.09696 29.09696 0 0 1 9.4208 57.344l-25.85088 4.31104 39.26016 113.00864 35.328-5.89312a29.09696 29.09696 0 0 1 9.42592 57.344l-25.4208 4.23936 12.63104 36.352a37.888 37.888 0 0 1-5.08416 34.84672c-7.35232 10.15296-37.49888 21.95456-49.152-12.96384s-13.76256-30.34112-13.76256-30.34112z m630.69696-233.5232a260.72576 260.72576 0 0 1-252.12416-17.55136 178.10432 178.10432 0 0 0-195.1488 0 258.4064 258.4064 0 0 1-111.74912 40.51968c-17.50016 2.00192-20.21376-58.7776-5.39136-60.8256a179.01568 179.01568 0 0 0 72.89344-27.39712 258.86208 258.86208 0 0 1 283.648 0 179.48672 179.48672 0 0 0 173.45024 12.08832c19.87584-9.42592 43.63264-18.56 53.20704 0.94208a38.86592 38.86592 0 0 1-18.78528 52.224z m-222.39232 178.26816c51.38432 33.58208 129.44384 38.24128 185.09312 12.0832 36.864-17.50016 53.15072 0.94208 53.15072 0.94208a38.76352 38.76352 0 0 1-18.72384 52.224c-80.896 38.05696-189.1072 31.29856-263.76704-17.54112a178.06336 178.06336 0 0 0-195.1488 0c-29.01504 19.0208-69.12-31.44192-44.24704-47.70816a258.85184 258.85184 0 0 1 283.64288 0z" /></svg>