<?xml version="1.0" standalone="no"?><!DOCTYPE svg PUBLIC "-//W3C//DTD SVG 1.1//EN" "http://www.w3.org/Graphics/SVG/1.1/DTD/svg11.dtd"><svg class="icon" width="48px" height="48.00px" viewBox="0 0 1024 1024" version="1.1" xmlns="http://www.w3.org/2000/svg"><path d="M20 76h983.2V256H20z" fill="#a5a7ff" /><path d="M72.8 256.8h877.6v693.6H72.8z" fill="#41ddc8" /><path d="M327.2 592h369.6v232H327.2zM396 351.2h232a53.6 53.6 0 0 1 0 107.2h-232a53.6 53.6 0 0 1 0-107.2z" fill="#ffffff" /><path d="M1004 56H20C8.8 56 0 64.8 0 76V256c0 11.2 8.8 20 20 20h32v672.8c0 11.2 8.8 20 20 20h877.6c11.2 0 20-8.8 20-20v-672h32c11.2 0 20-8.8 20-20V76c2.4-11.2-6.4-20-17.6-20z m-73.6 873.6H93.6V276.8h836.8v652.8zM40.8 236V96.8h942.4v139.2H40.8z" fill="#603813" /><path d="M327.2 844h369.6c11.2 0 20-8.8 20-20V592c0-11.2-8.8-20-20-20H327.2c-11.2 0-20 8.8-20 20v232c0 10.4 8.8 20 20 20z m20.8-232h328.8v191.2H348V612zM396 479.2h232c40.8 0 74.4-33.6 74.4-74.4s-33.6-74.4-74.4-74.4h-232c-40.8 0-74.4 33.6-74.4 74.4s33.6 74.4 74.4 74.4z m0-108h232c18.4 0 33.6 15.2 33.6 33.6 0 18.4-15.2 33.6-33.6 33.6h-232c-18.4 0-33.6-15.2-33.6-33.6 0.8-18.4 15.2-33.6 33.6-33.6z" fill="#603813" /><path d="M621.6 650.4H402.4c-11.2 0-20 8.8-20 20s8.8 20 20 20h219.2c11.2 0 20-8.8 20-20s-8.8-20-20-20zM621.6 724H402.4c-11.2 0-20 8.8-20 20s8.8 20 20 20h219.2c11.2 0 20-8.8 20-20s-8.8-20-20-20zM91.2 212.8h530.4c11.2 0 20-8.8 20-20s-8.8-20-20-20H91.2c-11.2 0-20 8.8-20 20 0 10.4 8.8 20 20 20zM700.8 212.8h24c11.2 0 20-8.8 20-20s-8.8-20-20-20h-24c-11.2 0-20 8.8-20 20 0 10.4 8.8 20 20 20z" fill="#603813" /></svg>